Coordinates
nRows=10
nColumns=34

# SIMM Motion File Header:
name Coordinates
datacolumns 34
datarows 10
otherdata 1
range 0.32800000 0.34950000

Units are S.I. units (second, meters, Newtons, ...)
Angles are in degrees.

endheader
time	pelvis_tz	pelvis_tx	pelvis_ty	pelvis_tilt	pelvis_list	pelvis_rotation	hip_flexion_r	hip_adduction_r	hip_rotation_r	knee_r_tx	knee_r_ty	knee_angle_r	tib_pat_r_tx	tib_pat_r_ty	tib_pat_r_r1	ankle_angle_r	subtalar_angle_r	mtp_angle_r	hip_flexion_l	hip_adduction_l	hip_rotation_l	knee_l_tx	knee_l_ty	knee_angle_l	tib_pat_l_tx	tib_pat_l_ty	tib_pat_l_r1	ankle_angle_l	subtalar_angle_l	mtp_angle_l	lumbar_extension	lumbar_bending	lumbar_rotation
      0.32800000	     -0.25336559	      0.17118282	      0.92711568	     -1.43636130	      3.62093280	     -3.23358228	     -0.73516122	     -1.44916942	     16.87806257	     -0.00419006	     -0.41344811	     -4.22767595	      0.04612852	     -0.02114181	      4.53800861	      9.01398636	      0.00000000	      0.00000000	     19.63528651	      3.85210209	     -1.62033319	      0.00379538	     -0.42156183	    -53.70189098	      0.03716483	     -0.01927981	     17.22518916	      3.43785816	      0.00000000	      0.00000000	     -2.81682070	     -0.36514008	      3.31325952
      0.33012500	     -0.25338615	      0.17313394	      0.92705900	     -1.42104428	      3.65868928	     -3.23800191	     -0.92009177	     -1.50104083	     16.86448942	     -0.00419969	     -0.41344251	     -4.15757679	      0.04613667	     -0.02114460	      4.47076039	      9.10791640	      0.00000000	      0.00000000	     19.79769400	      3.87331282	     -1.62711366	      0.00375618	     -0.42145465	    -53.28191825	      0.03726380	     -0.01929303	     17.21037224	      3.53889380	      0.00000000	      0.00000000	     -2.85827609	     -0.41483154	      3.32260439
      0.33250000	     -0.25341753	      0.17531245	      0.92698607	     -1.40517991	      3.69455781	     -3.24106028	     -1.12481734	     -1.55243126	     16.84602123	     -0.00421011	     -0.41343644	     -4.08142185	      0.04614543	     -0.02114760	      4.39737058	      9.20153913	      0.00000000	      0.00000000	     19.97637716	      3.89261086	     -1.62904975	      0.00371045	     -0.42133276	    -52.80195133	      0.03737653	     -0.01930818	     17.19287307	      3.64341658	      0.00000000	      0.00000000	     -2.90400080	     -0.46176245	      3.33078641
      0.33500000	     -0.25346024	      0.17760336	      0.92689827	     -1.38983420	      3.72534175	     -3.24209849	     -1.33811452	     -1.59923776	     16.82317541	     -0.00422062	     -0.41343029	     -4.00416978	      0.04615420	     -0.02115061	      4.32256918	      9.29147544	      0.00000000	      0.00000000	     20.16105939	      3.90824866	     -1.62434831	      0.00366007	     -0.42120213	    -52.28466492	      0.03749757	     -0.01932458	     17.17332577	      3.74591497	      0.00000000	      0.00000000	     -2.95149151	     -0.50163789	      3.33681567
      0.33750000	     -0.25351289	      0.17989226	      0.92679913	     -1.37566322	      3.74934317	     -3.24094005	     -1.54934582	     -1.63891834	     16.79751937	     -0.00423062	     -0.41342442	     -3.93033857	      0.04616247	     -0.02115345	      4.25074576	      9.38136729	      0.00000000	      0.00000000	     20.34185889	      3.91955305	     -1.61248760	      0.00360733	     -0.42106914	    -51.75485458	      0.03762105	     -0.01934144	     17.15255201	      3.84317165	      0.00000000	      0.00000000	     -2.99852620	     -0.53218699	      3.34025266
      0.34000000	     -0.25357545	      0.18217949	      0.92668865	     -1.36244567	      3.76715233	     -3.23769157	     -1.75879562	     -1.67211676	     16.76978447	     -0.00424010	     -0.41341885	     -3.86000837	      0.04617025	     -0.02115612	      4.18202344	      9.47963161	      0.00000000	      0.00000000	     20.51839516	      3.92720777	     -1.59333994	      0.00355216	     -0.42093380	    -51.21230795	      0.03774699	     -0.01935878	     17.13047379	      3.93646958	      0.00000000	      0.00000000	     -3.04529051	     -0.55411819	      3.34122110
      0.34200000	     -0.25363256	      0.18400830	      0.92659205	     -1.35247979	      3.77739933	     -3.23369285	     -1.92525028	     -1.69455030	     16.74649628	     -0.00424735	     -0.41341457	     -3.80599950	      0.04617615	     -0.02115815	      4.12904703	      9.56723466	      0.00000000	      0.00000000	     20.65641255	      3.93120875	     -1.57276490	      0.00350623	     -0.42082387	    -50.76899627	      0.03784949	     -0.01937300	     17.11181821	      4.00815293	      0.00000000	      0.00000000	     -3.08254154	     -0.56600510	      3.34034632
      0.34450000	     -0.25371258	      0.18629320	      0.92646083	     -1.34093706	      3.78537750	     -3.22710113	     -2.13184225	     -1.71765769	     16.71630086	     -0.00425606	     -0.41340942	     -3.74090610	      0.04618319	     -0.02116057	      4.06496394	      9.68600650	      0.00000000	      0.00000000	     20.82507103	      3.93368006	     -1.54047769	      0.00344655	     -0.42068443	    -50.20324637	      0.03797980	     -0.01939124	     17.08719154	      4.09292830	      0.00000000	      0.00000000	     -3.12870342	     -0.57399209	      3.33741786
      0.34700000	     -0.25380206	      0.18857677	      0.92631788	     -1.33057381	      3.78761621	     -3.21879937	     -2.33666573	     -1.73489358	     16.68486009	     -0.00426442	     -0.41340446	     -3.67810572	      0.04618990	     -0.02116287	      4.00289530	      9.80789623	      0.00000000	      0.00000000	     20.98962399	      3.93288644	     -1.50068076	      0.00338432	     -0.42054283	    -49.62466480	      0.03811247	     -0.01940998	     17.06103968	      4.17068934	      0.00000000	      0.00000000	     -3.17427346	     -0.57390832	      3.33260872
      0.34950000	     -0.25390090	      0.19085894	      0.92616339	     -1.32136886	      3.78368817	     -3.20878594	     -2.53980321	     -1.74581000	     16.65205036	     -0.00427249	     -0.41339966	     -3.61723983	      0.04619632	     -0.02116508	      3.94251039	      9.92578721	      0.00000000	      0.00000000	     21.15005229	      3.92835746	     -1.45301341	      0.00331951	     -0.42039920	    -49.03337691	      0.03824743	     -0.01942924	     17.03328395	      4.24047989	      0.00000000	      0.00000000	     -3.21932742	     -0.56526991	      3.32600282
